<?xml version="1.0" encoding="UTF-8"?>
<svg id="Ebene_1" data-name="Ebene 1" xmlns="http://www.w3.org/2000/svg" viewBox="0 0 1024 1024">
  <defs>
    <style>
      .cls-1 {
        fill: #010101;
      }

      .cls-1, .cls-2 {
        stroke-width: 0px;
      }

      .cls-2 {
        fill: #fff;
      }
    </style>
  </defs>
  <circle class="cls-2" cx="521.56" cy="512" r="486.67"/>
  <g>
    <path class="cls-1" d="M515.26,282.59c-36.91,84.59-73.56,168.58-110.22,252.56-10.14,23.23-20.31,46.44-30.44,69.67-24.94,57.23-49.85,114.46-74.76,171.7-.72,1.65-1.26,2.89-3.59,2.88-28.3-.13-56.59-.13-84.89-.17-.33,0-.66-.14-1.37-.31,3.01-6.97,5.93-13.8,8.9-20.61,85.31-195.66,170.63-391.31,255.88-587,1.31-3.01,2.66-4.26,6.21-4.21,29.04.37,58.09.5,87.13.55,2.71,0,3.55,1.19,4.47,3.35,60.8,141.84,121.64,283.66,182.5,425.48,25.86,60.27,51.76,120.53,77.65,180.8.25.58.59,1.11.3,1.74-25.61,1.79-50.48-.89-73.73-12.72-17.1-8.7-29.94-22.33-42.27-36.66-16.13-18.76-26.18-40.75-35.63-63.27-16.16-38.49-32.81-76.77-49.41-115.07-38.25-88.25-76.6-176.47-114.91-264.7-.49-1.13-1-2.24-1.8-4.02Z"/>
    <path class="cls-1" d="M517.26,639.51c-35.81.05-65.56-26.66-69.5-61.18-3.83-33.49,13.75-64,43.63-75.72,39.21-15.38,83.45,9.36,91.65,51.27,7.43,37.94-14.33,73.98-50.43,83.54-5.47,1.45-11.03,2.19-15.35,2.1Z"/>
  </g>
</svg>