<?xml version="1.0" encoding="UTF-8"?>
<svg id="Ebene_1" data-name="Ebene 1" xmlns="http://www.w3.org/2000/svg" viewBox="0 0 1834.29 363.53">
  <defs>
    <style>
      .cls-1 {
        fill: #ffffff;
      }

      .cls-1, .cls-2 {
        stroke-width: 0px;
      }

      .cls-2 {
        fill: #ffffff;
      }
    </style>
  </defs>
  <path class="cls-2" d="M1834.29,363.53H0V0h1834.29v363.53ZM1098.02,1.71c-243.28,0-486.57,0-729.85-.09-3.84,0-4.82.9-4.81,4.79.11,116.91.11,233.81,0,350.72,0,3.89.97,4.79,4.81,4.79,486.57-.09,973.13-.09,1459.7,0,3.84,0,4.82-.9,4.81-4.79-.11-116.76-.12-233.53.02-350.29,0-4.3-1.01-5.23-5.26-5.23-243.14.12-486.28.1-729.42.1ZM322.61,320.81c-13.95.46-26.49-1.99-37.03-10.58-10.25-8.36-18.34-18.55-23.65-30.79-4.73-10.92-9.45-21.85-14.23-32.76-.74-1.68-1.07-4.79-3.57-3.72-2.14.91-.18,3.22.47,4.75,4.42,10.44,9.13,20.76,13.35,31.28,3.55,8.84,9,16.35,14.9,23.67,13.18,16.36,30.57,22.24,50.98,21.01,3-.18,3.34-1.12,2.2-3.63-2.39-5.29-4.61-10.66-6.91-16-37.25-86.72-74.53-173.44-111.68-260.2-1.49-3.48-3.14-4.81-7.07-4.7-11.93.33-23.89.31-35.82,0-3.79-.1-5.34,1.22-6.77,4.53-23.19,53.43-46.52,106.8-69.82,160.19-16.72,38.32-33.45,76.64-50.16,114.96-1.94,4.46-1.75,4.74,3,4.74,11.66,0,23.32-.1,34.97.08,2.72.04,3.97-.88,5.02-3.3,10.53-24.32,21.17-48.6,31.77-72.88.34-.78.77-1.54.96-2.35.18-.77.48-1.79-.64-2.16-.85-.29-1.75-.17-2.24.71-.55.99-1,2.03-1.45,3.06-8.98,20.51-17.95,41.03-26.94,61.54-1.82,4.14-2.74,9.81-5.94,11.9-3.21,2.1-8.77.66-13.3.69-7.29.04-14.58.01-22.37.01,7.38-16.88,14.48-33.08,21.55-49.3,32.8-75.22,65.61-150.43,98.32-225.68,1.32-3.03,2.85-4.14,6.24-4.05,10.51.27,21.04.29,31.56,0,3.62-.1,5.1,1.24,6.44,4.37,31.42,73.34,62.94,146.64,94.44,219.95,7.76,18.07,15.5,36.16,23.43,54.67ZM178.53,95.92c.92,1.92,1.6,3.26,2.2,4.63,16.08,37.03,32.13,74.07,48.31,111.06.69,1.57.49,5.33,3.56,3.9,2.16-1,.17-3.54-.55-5.21-8.65-20.03-17.37-40.02-26.07-60.03-8.07-18.58-16.13-37.16-24.23-55.73-.64-1.47-.85-3.42-3.22-3.38-2.34.04-2.41,2.04-3.17,3.46-.13.25-.27.5-.38.76-16.71,38.3-33.42,76.6-50.12,114.91-.4.91-.97,1.81-1.07,2.75-.11.96-.83,2.35.81,2.83,1.25.37,1.76-.58,2.21-1.49.37-.76.71-1.55,1.05-2.33,12.56-28.83,25.12-57.66,37.68-86.49,4.24-9.72,8.5-19.42,12.98-29.65ZM178.92,191.91c-18.67,0-32.63,13.83-32.75,32.43-.12,18.74,13.98,32.86,32.8,32.85,18.75-.02,32.61-13.8,32.65-32.46.04-19-13.73-32.82-32.69-32.82Z"/>
  <path class="cls-1" d="M1246.38,185.22c0,15.92.02,31.84-.03,47.76,0,1.33.96,3.24-.58,3.89-1.35.57-2.42-1.13-3.41-2.08-13.53-12.99-27.02-26.02-40.53-39.03-9.52-9.17-19.04-18.33-28.58-27.47-.76-.73-1.33-2.24-2.64-1.71-1.53.61-.86,2.23-.86,3.41-.04,19.61-.16,39.23.06,58.84.04,3.92-1.16,5.05-4.82,4.68-2.53-.25-5.12-.21-7.66,0-3.05.25-4.28-.64-4.26-3.98.11-32.12.06-64.24.08-96.36,0-1.17-.62-2.8,1.05-3.31,1.37-.41,1.83,1.1,2.6,1.85,23.01,22.4,46.01,44.81,69.03,67.21.86.84,1.62,2.37,3.11,1.59,1.38-.72.75-2.3.75-3.5.03-20.18.11-40.37-.07-60.55-.04-4.07,1.08-5.47,5.31-5.37,11.46.29,11.47.11,11.47,11.49,0,14.21,0,28.43,0,42.64Z"/>
  <path class="cls-1" d="M607.34,150.45c0,5.12-.02,10.24.01,15.36,0,1.09-.39,2.52.92,3.03,1.04.41,1.73-.72,2.47-1.36,17.95-15.35,50.12-7.9,61.19,12.18,7.69,13.95,4.46,31.77-8.25,42.91-17.46,15.31-46.46,14.08-62.4-2.57-6.7-7-9.11-15.64-9.21-24.92-.22-19.91-.04-39.82-.12-59.73-.01-3.16,1.21-4.19,4.31-4.23,11.1-.11,11.1-.2,11.1,10.8,0,2.84,0,5.69,0,8.53ZM635.69,219.18c2.4.19,6.26-.84,10.02-2.13,16.34-5.63,20.48-25.35,7.82-37.03-10.27-9.47-27.87-9.66-38.28-.41-10.66,9.47-10.44,25.66.44,33.72,5.46,4.05,11.66,5.67,20,5.86Z"/>
  <path class="cls-1" d="M585.18,233.46c-5.94,2.11-9.01-1.96-12.01-7.47-11.31-20.79-23-41.38-34.51-62.06-.62-1.12-.96-2.58-2.42-2.71-1.77-.16-1.67,1.67-2.24,2.68-12.09,21.66-24.22,43.29-36.12,65.05-1.89,3.45-4.03,4.99-7.96,4.59-3.24-.33-6.53-.11-9.8-.04-2.8.06-4.09-.44-2.32-3.58,11.82-21,23.54-42.06,35.29-63.1,7.05-12.62,14.09-25.24,21.13-37.87.46-.83.44-2.12,1.75-2.12,1.29,0,1.9,1,2.48,2.04,18.23,32.68,36.48,65.34,54.7,98.02,3.65,6.55,3.59,6.58-3.91,6.57-1,0-1.99,0-4.04,0Z"/>
  <path class="cls-1" d="M733.39,190.61c3.89.25,11.32-.51,18.56,1.66,6.41,1.92,12.1,4.7,13.47,11.99,1.59,8.49-.99,15.71-7.81,21.18-4.76,3.82-10.39,5.97-16.3,6.93-14.92,2.42-29.8,3.12-43.45-5.04-5.15-3.08-9.53-7.3-11.78-13.07-1.66-4.25-.98-5.02,3.48-5.06,1.42-.01,2.86.15,4.26-.02,4.14-.51,7.02.55,9.52,4.44,2.97,4.62,8.36,6.38,13.59,7.18,8.2,1.24,16.45,1.21,24.43-1.6,3.13-1.1,5.96-2.73,7.62-5.79,2.9-5.37.81-9.58-5.26-10.48-6.2-.92-12.46-1.1-18.72-1.05-6.68.06-13.36.02-20.02-.72-3.89-.43-7.51-1.55-10.86-3.47-10.12-5.81-11.85-18.2-3.84-26.8,4.74-5.09,10.75-7.87,17.32-9.45,15.7-3.76,31.03-3.33,45.44,4.89,4.96,2.83,8.56,6.96,10.15,12.61.89,3.15.29,5.06-3.54,4.58-.98-.12-2-.1-2.98-.01-4.44.4-7.72-.28-10.59-4.78-3.57-5.6-10.38-6.51-16.64-7.33-7.77-1.02-15.28.14-22.51,3.14-2.03.84-3.6,2.21-4.79,4.05-3.04,4.7-1.42,8.98,4.02,10.45,7.82,2.11,15.83,1.25,27.23,1.58Z"/>
  <path class="cls-1" d="M1414.15,159.25c7.85,0,7.72.06,10.63,7.81,4.43,11.79,9.04,23.52,13.65,35.24.41,1.04.06,2.97,1.83,2.88,1.16-.06,1.49-1.61,1.97-2.58,4.98-9.87,9.9-19.76,14.83-29.65.38-.76.68-1.57,1.17-2.26,1.34-1.89,2.12-2.17,3.36.42,5.08,10.6,10.46,21.05,15.72,31.56.43.85.47,2.18,1.75,2.08,1.29-.1,1.71-1.29,2.13-2.39,4.89-12.83,9.82-25.64,14.69-38.48,1.21-3.19,2.84-5.52,6.83-4.68,1.23.26,2.55.04,3.83.04,7.78,0,7.62-.07,4.7,7.38-8.68,22.14-17.21,44.33-25.81,66.5-.31.79-.65,1.58-1.09,2.3-1.06,1.73-1.84,2.34-3.08-.12-6.47-12.92-13.1-25.75-19.7-38.6-.47-.92-.29-2.54-1.89-2.4-1.26.11-1.72,1.32-2.23,2.35-6.09,12.16-12.19,24.32-18.29,36.48-.44.88-.85,1.81-1.43,2.6-1.1,1.5-1.97,1.89-2.85-.37-9.25-23.89-18.57-47.75-27.87-71.61-1.1-2.82-.97-4.8,2.86-4.53,1.41.1,2.84.02,4.26.02Z"/>
  <path class="cls-1" d="M1677.32,182.3c0-15.36.1-30.72-.07-46.07-.04-3.83.92-5.26,5.03-5.15,10.78.3,10.79.11,10.79,10.94,0,13.37-.02,26.73.02,40.1,0,1.2-.58,2.78.92,3.42,1.45.62,2.26-.78,3.2-1.58,8.42-7.2,16.9-14.34,25.21-21.67,2.42-2.14,4.9-3.11,8.09-2.93,3.4.19,6.82-.03,10.23.07,1.33.04,3.21-.85,3.86.74.62,1.54-1.13,2.41-2.17,3.32-7.8,6.84-15.62,13.65-23.42,20.48-3.42,3-6.71,6.15-10.25,9-2.52,2.03-2.14,3.3.16,5.24,12.5,10.52,24.89,21.16,37.29,31.81.87.74,2.72,1.13,2.01,2.77-.54,1.23-2.04.58-3.12.68-.14.01-.29-.02-.43,0-11.18,1.7-20.21-1.78-28.11-10.04-5.75-6.02-12.72-10.89-19.18-16.22-1.01-.83-1.79-2.62-3.49-1.71-1.36.73-.79,2.3-.8,3.51-.04,6.83-.16,13.66.06,20.47.1,3.02-.93,3.96-3.86,4.04-11.95.32-11.95.39-11.95-11.55,0-13.22,0-26.45,0-39.67Z"/>
  <path class="cls-1" d="M1087.34,197.88c3.37-1.92,6.95-2.31,10.54-2.66,8.49-.82,16.97-1.72,25.46-2.44,2.84-.24,3.8-.98,2.53-3.96-2.84-6.7-7.7-11.37-14.36-13.72-9.93-3.49-19.49-1.86-27.82,4.52-6.37,4.88-9.76,11.74-8.31,19.82,1.57,8.81,7.4,14.71,15.71,17.57,12.12,4.16,23.27,2.68,32.29-7.35.94-1.05,1.99-1.64,3.36-1.42,3.37.54,6.73,1.13,10.08,1.74,2.96.54,3.37,1.82,1.67,4.43-6.6,10.12-15.92,16.26-27.67,18.14-17.35,2.78-32.61-1.74-43.87-15.74-11.58-14.41-8.76-34.98,5.81-47.2,18.54-15.55,46.37-13.3,61.99,5.05,5.87,6.89,8.2,15.12,8.65,24,.12,2.32-.82,3.37-3.29,3.18-17.56-1.35-35.12-2.64-52.77-3.96Z"/>
  <path class="cls-1" d="M1554.4,233.43c-13.74-.44-25.71-5.18-34.22-16.19-11.7-15.15-9.25-34.21,5.39-47.24,15.87-14.13,43.54-13.86,59.16.56,19.79,18.27,14.47,48.01-10.49,58.65-6.33,2.7-12.86,4.46-19.84,4.22ZM1555.21,219.23c3.94.2,7.62-.94,11.19-2.33,15.56-6.02,20.1-23.77,9.04-35.13-10.56-10.84-30.59-10.86-41.18-.02-8.26,8.45-8.24,21,.14,29.34,5.73,5.71,12.85,8.07,20.81,8.14Z"/>
  <path class="cls-1" d="M813.95,233.43c-11.77-.41-23.89-5.1-32.45-16.32-11.72-15.36-8.82-35.53,6.23-47.8,17.44-14.22,44.46-12.8,60.34,3.16,14.82,14.9,13.25,38.36-3.5,51.27-8.37,6.44-17.87,9.7-30.61,9.69ZM816.06,219.25c4.08.22,7.9-.88,11.63-2.29,16.1-6.09,20.37-24.66,8.31-35.98-10.87-10.2-30.24-9.73-40.54.99-7.89,8.21-7.95,20.56-.04,28.74,5.63,5.82,12.71,8.28,20.65,8.54Z"/>
  <path class="cls-1" d="M904.81,180.85c0-5.83.08-11.65-.04-17.48-.05-2.71.85-3.93,3.7-3.74,2.83.18,5.69.18,8.52,0,3.07-.19,3.91,1.22,3.88,4.07-.11,9.95.3,19.91-.14,29.83-.82,18.6,17.54,29.32,34.64,24.56,9.87-2.75,18.8-13.09,18.23-25.28-.45-9.78-.02-19.6-.11-29.41-.03-2.9.8-3.9,3.93-3.83,11.85.27,11.93.14,11.83,11.94-.08,9.09.62,18.2-.36,27.26-1.77,16.32-11.45,26.68-26.27,31.96-14.75,5.25-29.16,3.45-42.14-5.75-9.99-7.08-15.4-16.85-15.64-29.23-.1-4.97-.02-9.95-.02-14.92h-.02Z"/>
  <path class="cls-1" d="M1327.13,201.04c-10.63-.76-21.27-1.49-31.89-2.32-1.39-.11-3.69.44-3.62-1.81.05-1.7,2.12-1.52,3.46-1.66,8.2-.86,16.39-1.77,24.61-2.42,3.24-.25,3.84-1.07,2.48-4.18-4.3-9.81-14.76-16.19-25.74-15.3-12.72,1.03-22.21,8.45-24.7,19.3-2.22,9.68,5.17,21.12,15.98,24.54,12.08,3.83,23.01,2.39,31.93-7.44,1.07-1.18,2.27-1.64,3.79-1.39,2.94.49,5.88,1.04,8.82,1.49,3.42.52,4.47,1.64,2.18,4.99-8.58,12.58-20.73,18.38-35.55,18.33-15.84-.06-29.19-5.88-37.88-19.78-8.83-14.13-5.32-32.46,7.98-43.68,18.41-15.54,46.37-13.35,62.02,4.9,5.8,6.77,8.04,14.88,8.61,23.58.17,2.56-.97,3.67-3.54,3.45-2.97-.25-5.96-.41-8.93-.6,0,0,0-.01,0-.02Z"/>
  <path class="cls-1" d="M1350.48,167.69c0-11.63.1-21.87-.06-32.11-.05-3.39,1.22-4.65,4.5-4.45,2.55.16,5.13.2,7.67,0,3.33-.26,4.61,1.03,4.52,4.4-.18,6.39.08,12.8-.13,19.19-.11,3.48,1.07,4.9,4.65,4.76,5.25-.21,10.52.05,15.77-.12,3.15-.1,4.5,1.16,4.25,4.26-.07.85-.02,1.71-.02,2.56,0,5.7-.1,5.79-5.64,5.78-5.12,0-10.23,0-15.35-.02-2,0-3.87.31-3.79,2.89.27,8.65-.61,17.33.75,25.97,2.06,13.02,11.35,17.06,20.95,18.17,3.37.39,6.82.37,10.22.25,2.69-.09,3.76.71,3.82,3.58.25,10.71.35,10.62-10.29,10.66-8.61.03-17.1-.51-24.8-4.84-11.64-6.55-15.43-17.55-16.56-29.94-.98-10.78-.2-21.6-.47-31Z"/>
  <path class="cls-1" d="M1002.42,168.12c0-11.82.12-22.06-.06-32.29-.06-3.55,1.17-5,4.69-4.69,1.83.16,3.69.04,5.54.04q6.44-.02,6.43,6.65c0,5.54.21,11.1-.09,16.63-.22,4.09,1.44,5.22,5.25,5.03,5.1-.25,10.23.01,15.34-.12,2.89-.07,4.05,1.01,4.12,3.97.22,8.62.31,8.62-8.41,8.62-4.26,0-8.53,0-12.79,0-2.07,0-3.74.56-3.65,3.06.31,8.65-.79,17.36.85,25.96,2.1,10.99,8.88,16.9,20.62,17.98,3.67.34,7.39.39,11.07.27,3.32-.1,3.72,2.13,3.03,4.16-1.12,3.31,3.44,9.19-2.65,9.81-8.39.85-17.01.81-25.37-1.72-12.77-3.87-19.77-12.75-22.36-25.39-2.67-13.07-1.19-26.36-1.57-37.97Z"/>
  <path class="cls-1" d="M1624.19,211.62c0,6.6-.12,12,.05,17.39.09,3-.74,4.32-4.04,4.37-12.14.19-12.24.29-12.17-11.94.06-11.35-.99-22.73.34-34.04,1.94-16.6,14.21-27.6,30.99-28.09,6.38-.19,12.78.06,19.16-.1,3.02-.07,4.03,1.22,3.99,4.06-.19,12.25,1.35,10.2-9.96,10.35-6.09.08-12.24-.34-17.81,2.94-5.32,3.13-8.54,7.71-9.72,13.76-1.46,7.47-.52,15.01-.82,21.31Z"/>
  <path class="cls-1" d="M885.51,182.61c0,15.63-.08,31.26.07,46.89.03,2.98-.83,4.18-3.83,4.01-2.83-.16-5.69-.16-8.52,0-2.71.16-3.38-1.07-3.37-3.55.05-31.54.06-63.08,0-94.63,0-3.06.93-4.23,4.18-4.22,11.46.04,11.46-.08,11.46,11.43,0,13.36,0,26.71,0,40.07h.02Z"/>
  <path class="cls-1" d="M536.44,216.89c4.5.07,8.13,3.7,8.14,8.13,0,4.61-3.77,8.38-8.38,8.36-4.54-.02-8.13-3.87-8.03-8.6.1-4.61,3.62-7.96,8.27-7.89Z"/>
  <path class="cls-2" d="M149.18,224.39c.08-15.77,13.98-29.69,29.69-29.75,15.68-.06,30.17,14.47,29.98,30.04-.2,15.89-14.46,29.86-30.27,29.66-15.8-.2-29.48-14.14-29.4-29.96Z"/>
</svg>